<svg viewBox="0 0 352 36" xmlns="http://www.w3.org/2000/svg" data-logo="logo">
        <g transform="translate(0, 1) rotate(0)" id="logogram" style="opacity: 1;"><path fill="#007AFF" d="M15.4992 0H36.5808L21.0816 22.9729H0L15.4992 0Z"></path><path fill="#312ECB" d="M16.4224 25.102L10.4192 34H32.5008L48 11.0271H31.7024L22.2064 25.102H16.4224Z"></path></g>
        <g transform="translate(54, 3.5)" id="logotype" style="opacity: 1;"><path d="M27.88 3.49L27.88 28L22.63 28L13.18 11.87L13.18 28L8.27 28L8.27 3.49L13.52 3.49L22.97 19.64L22.97 3.49L27.88 3.49ZM49.37 9.73L49.37 28L48.25 28L46.43 25.49Q45.77 26.09 45.02 26.61Q44.28 27.13 43.46 27.51Q42.64 27.90 41.78 28.12Q40.91 28.34 40.03 28.34L40.03 28.34Q38.09 28.34 36.39 27.69Q34.69 27.04 33.42 25.80Q32.15 24.56 31.41 22.77Q30.68 20.98 30.68 18.69L30.68 18.69Q30.68 16.55 31.41 14.76Q32.15 12.98 33.42 11.70Q34.69 10.41 36.39 9.71Q38.09 9.00 40.03 9.00L40.03 9.00Q40.91 9.00 41.79 9.22Q42.66 9.44 43.48 9.83Q44.30 10.23 45.04 10.76Q45.79 11.29 46.43 11.90L46.43 11.90L48.25 9.73L49.37 9.73ZM44.67 18.69L44.67 18.69Q44.67 17.73 44.31 16.83Q43.94 15.93 43.31 15.24Q42.67 14.55 41.83 14.13Q40.98 13.71 40.03 13.71L40.03 13.71Q39.07 13.71 38.22 14.04Q37.38 14.36 36.75 14.99Q36.13 15.63 35.77 16.56Q35.41 17.49 35.41 18.69L35.41 18.69Q35.41 19.88 35.77 20.81Q36.13 21.75 36.75 22.38Q37.38 23.01 38.22 23.33Q39.07 23.66 40.03 23.66L40.03 23.66Q40.98 23.66 41.83 23.24Q42.67 22.82 43.31 22.13Q43.94 21.44 44.31 20.54Q44.67 19.64 44.67 18.69ZM57.59 17.92L57.59 28L52.93 28L52.93 9.70L54.06 9.70L55.59 11.87Q56.72 10.84 58.16 10.29Q59.59 9.73 61.13 9.73L61.13 9.73L65.25 9.73L65.25 14.38L61.13 14.38Q60.40 14.38 59.75 14.65Q59.10 14.93 58.62 15.40Q58.14 15.88 57.87 16.53Q57.59 17.18 57.59 17.92L57.59 17.92ZM72.09 17.92L72.09 28L67.42 28L67.42 9.70L68.55 9.70L70.09 11.87Q71.21 10.84 72.65 10.29Q74.09 9.73 75.62 9.73L75.62 9.73L79.74 9.73L79.74 14.38L75.62 14.38Q74.89 14.38 74.24 14.65Q73.59 14.93 73.11 15.40Q72.63 15.88 72.36 16.53Q72.09 17.18 72.09 17.92L72.09 17.92ZM99.29 9.73L99.29 28L98.17 28L96.35 25.49Q95.69 26.09 94.94 26.61Q94.20 27.13 93.38 27.51Q92.56 27.90 91.70 28.12Q90.83 28.34 89.95 28.34L89.95 28.34Q88.01 28.34 86.31 27.69Q84.61 27.04 83.34 25.80Q82.07 24.56 81.33 22.77Q80.60 20.98 80.60 18.69L80.60 18.69Q80.60 16.55 81.33 14.76Q82.07 12.98 83.34 11.70Q84.61 10.41 86.31 9.71Q88.01 9.00 89.95 9.00L89.95 9.00Q90.83 9.00 91.71 9.22Q92.58 9.44 93.40 9.83Q94.22 10.23 94.96 10.76Q95.70 11.29 96.35 11.90L96.35 11.90L98.17 9.73L99.29 9.73ZM94.59 18.69L94.59 18.69Q94.59 17.73 94.23 16.83Q93.86 15.93 93.23 15.24Q92.59 14.55 91.75 14.13Q90.90 13.71 89.95 13.71L89.95 13.71Q88.99 13.71 88.14 14.04Q87.30 14.36 86.67 14.99Q86.05 15.63 85.69 16.56Q85.33 17.49 85.33 18.69L85.33 18.69Q85.33 19.88 85.69 20.81Q86.05 21.75 86.67 22.38Q87.30 23.01 88.14 23.33Q88.99 23.66 89.95 23.66L89.95 23.66Q90.90 23.66 91.75 23.24Q92.59 22.82 93.23 22.13Q93.86 21.44 94.23 20.54Q94.59 19.64 94.59 18.69ZM115.56 28L112.03 28Q110.33 28 108.85 27.36Q107.36 26.72 106.24 25.60Q105.12 24.48 104.48 22.99Q103.84 21.51 103.84 19.81L103.84 19.81L103.84 14.38L101.57 14.38L101.57 9.73L103.84 9.73L103.84 2.42L108.49 2.42L108.49 9.73L115.56 9.73L115.56 14.38L108.49 14.38L108.49 19.81Q108.49 20.55 108.76 21.19Q109.03 21.83 109.51 22.31Q109.99 22.79 110.64 23.07Q111.29 23.35 112.03 23.35L112.03 23.35L115.56 23.35L115.56 28ZM123.68 4.72L123.68 4.72Q123.68 5.37 123.43 5.94Q123.19 6.50 122.76 6.92Q122.33 7.34 121.76 7.59Q121.19 7.83 120.54 7.83L120.54 7.83Q119.89 7.83 119.31 7.59Q118.74 7.34 118.32 6.92Q117.90 6.50 117.66 5.94Q117.41 5.37 117.41 4.72L117.41 4.72Q117.41 4.09 117.66 3.52Q117.90 2.95 118.32 2.53Q118.74 2.11 119.31 1.86Q119.89 1.61 120.54 1.61L120.54 1.61Q121.19 1.61 121.76 1.86Q122.33 2.11 122.76 2.53Q123.19 2.95 123.43 3.52Q123.68 4.09 123.68 4.72ZM122.88 9.70L122.88 28L118.18 28L118.18 9.70L122.88 9.70ZM136.31 28L131.63 28L124.65 9.70L129.97 9.70L133.97 21.11L137.95 9.70L143.28 9.70L136.31 28ZM160.56 12.98L151.81 23.52Q152.08 23.61 152.36 23.63Q152.63 23.66 152.90 23.66L152.90 23.66Q153.59 23.66 154.22 23.47Q154.85 23.28 155.41 22.93Q155.96 22.58 156.40 22.08Q156.83 21.57 157.11 20.96L157.11 20.96L160.53 24.39Q159.88 25.32 159.03 26.05Q158.19 26.79 157.20 27.30Q156.22 27.81 155.13 28.08Q154.05 28.34 152.90 28.34L152.90 28.34Q150.97 28.34 149.27 27.62Q147.57 26.91 146.30 25.62Q145.03 24.34 144.29 22.57Q143.56 20.81 143.56 18.69L143.56 18.69Q143.56 16.52 144.29 14.72Q145.03 12.93 146.30 11.66Q147.57 10.40 149.27 9.70Q150.97 9.00 152.90 9.00L152.90 9.00Q154.05 9.00 155.14 9.27Q156.24 9.54 157.22 10.06Q158.20 10.57 159.06 11.31Q159.91 12.06 160.56 12.98L160.56 12.98ZM148.77 21.11L154.20 13.90Q153.88 13.78 153.56 13.75Q153.25 13.71 152.90 13.71L152.90 13.71Q151.95 13.71 151.10 14.06Q150.26 14.41 149.63 15.06Q149.01 15.71 148.65 16.63Q148.29 17.54 148.29 18.69L148.29 18.69Q148.29 18.94 148.32 19.27Q148.34 19.59 148.40 19.93Q148.46 20.26 148.55 20.57Q148.63 20.87 148.77 21.11L148.77 21.11ZM183.00 3.49L183.00 28L177.75 28L168.30 11.87L168.30 28L163.40 28L163.40 3.49L168.64 3.49L178.09 19.64L178.09 3.49L183.00 3.49ZM202.81 12.98L194.06 23.52Q194.33 23.61 194.60 23.63Q194.88 23.66 195.15 23.66L195.15 23.66Q195.83 23.66 196.47 23.47Q197.10 23.28 197.65 22.93Q198.21 22.58 198.65 22.08Q199.08 21.57 199.35 20.96L199.35 20.96L202.77 24.39Q202.12 25.32 201.28 26.05Q200.43 26.79 199.45 27.30Q198.47 27.81 197.38 28.08Q196.30 28.34 195.15 28.34L195.15 28.34Q193.22 28.34 191.52 27.62Q189.82 26.91 188.55 25.62Q187.27 24.34 186.54 22.57Q185.80 20.81 185.80 18.69L185.80 18.69Q185.80 16.52 186.54 14.72Q187.27 12.93 188.55 11.66Q189.82 10.40 191.52 9.70Q193.22 9.00 195.15 9.00L195.15 9.00Q196.30 9.00 197.39 9.27Q198.48 9.54 199.47 10.06Q200.45 10.57 201.30 11.31Q202.16 12.06 202.81 12.98L202.81 12.98ZM191.01 21.11L196.45 13.90Q196.12 13.78 195.81 13.75Q195.49 13.71 195.15 13.71L195.15 13.71Q194.19 13.71 193.35 14.06Q192.50 14.41 191.88 15.06Q191.25 15.71 190.90 16.63Q190.54 17.54 190.54 18.69L190.54 18.69Q190.54 18.94 190.56 19.27Q190.59 19.59 190.65 19.93Q190.71 20.26 190.79 20.57Q190.88 20.87 191.01 21.11L191.01 21.11ZM215.13 18.62L221.83 28L216.12 28L212.48 22.39L208.81 28L203.10 28L209.78 18.62L203.10 9.59L208.81 9.59L212.48 14.84L216.12 9.59L221.83 9.59L215.13 18.62ZM238.47 28L236.94 25.86Q236.37 26.38 235.73 26.83Q235.09 27.28 234.39 27.62Q233.69 27.95 232.94 28.15Q232.20 28.34 231.43 28.34L231.43 28.34Q229.74 28.34 228.25 27.74Q226.77 27.15 225.65 26.04Q224.53 24.94 223.89 23.36Q223.25 21.78 223.25 19.81L223.25 19.81L223.25 9.70L227.89 9.70L227.89 19.81Q227.89 20.74 228.18 21.46Q228.46 22.19 228.94 22.69Q229.42 23.18 230.06 23.44Q230.70 23.69 231.43 23.69L231.43 23.69Q232.15 23.69 232.79 23.36Q233.43 23.03 233.91 22.48Q234.39 21.93 234.66 21.24Q234.94 20.55 234.94 19.81L234.94 19.81L234.94 9.70L239.60 9.70L239.60 28L238.47 28ZM253.20 28L253.20 28L242.54 28L242.54 23.35L253.20 23.35Q253.68 23.35 254.02 23.01Q254.37 22.67 254.37 22.19L254.37 22.19Q254.37 21.69 254.02 21.54Q253.68 21.39 253.20 21.39L253.20 21.39L248.35 21.39Q247.14 21.39 246.08 20.92Q245.02 20.46 244.23 19.67Q243.45 18.87 242.99 17.81Q242.54 16.75 242.54 15.54L242.54 15.54Q242.54 14.33 242.99 13.27Q243.45 12.21 244.23 11.42Q245.02 10.64 246.08 10.18Q247.14 9.73 248.35 9.73L248.35 9.73L257.80 9.73L257.80 14.38L248.35 14.38Q247.87 14.38 247.53 14.72Q247.19 15.06 247.19 15.54L247.19 15.54Q247.19 16.04 247.53 16.39Q247.87 16.74 248.35 16.74L248.35 16.74L253.20 16.74Q254.40 16.74 255.46 17.14Q256.52 17.54 257.31 18.26Q258.09 18.98 258.55 19.98Q259.02 20.99 259.02 22.19L259.02 22.19Q259.02 23.40 258.55 24.45Q258.09 25.50 257.31 26.30Q256.52 27.09 255.46 27.55Q254.40 28 253.20 28ZM267.24 26.26L267.24 26.26Q267.24 26.87 267.01 27.41Q266.79 27.95 266.40 28.34Q266.00 28.73 265.48 28.97Q264.95 29.20 264.33 29.20L264.33 29.20Q263.73 29.20 263.19 28.97Q262.66 28.73 262.25 28.34Q261.85 27.95 261.62 27.41Q261.39 26.87 261.39 26.26L261.39 26.26Q261.39 25.66 261.62 25.13Q261.85 24.60 262.25 24.21Q262.66 23.81 263.19 23.58Q263.73 23.35 264.33 23.35L264.33 23.35Q264.95 23.35 265.48 23.58Q266.00 23.81 266.40 24.21Q266.79 24.60 267.01 25.13Q267.24 25.66 267.24 26.26ZM288.43 9.73L288.43 28L287.30 28L285.49 25.49Q284.82 26.09 284.08 26.61Q283.33 27.13 282.51 27.51Q281.69 27.90 280.83 28.12Q279.97 28.34 279.08 28.34L279.08 28.34Q277.15 28.34 275.45 27.69Q273.75 27.04 272.47 25.80Q271.20 24.56 270.47 22.77Q269.73 20.98 269.73 18.69L269.73 18.69Q269.73 16.55 270.47 14.76Q271.20 12.98 272.47 11.70Q273.75 10.41 275.45 9.71Q277.15 9.00 279.08 9.00L279.08 9.00Q279.97 9.00 280.84 9.22Q281.71 9.44 282.53 9.83Q283.35 10.23 284.09 10.76Q284.84 11.29 285.49 11.90L285.49 11.90L287.30 9.73L288.43 9.73ZM283.73 18.69L283.73 18.69Q283.73 17.73 283.36 16.83Q282.99 15.93 282.36 15.24Q281.73 14.55 280.88 14.13Q280.04 13.71 279.08 13.71L279.08 13.71Q278.12 13.71 277.28 14.04Q276.43 14.36 275.81 14.99Q275.18 15.63 274.82 16.56Q274.46 17.49 274.46 18.69L274.46 18.69Q274.46 19.88 274.82 20.81Q275.18 21.75 275.81 22.38Q276.43 23.01 277.28 23.33Q278.12 23.66 279.08 23.66L279.08 23.66Q280.04 23.66 280.88 23.24Q281.73 22.82 282.36 22.13Q282.99 21.44 283.36 20.54Q283.73 19.64 283.73 18.69ZM297.48 4.72L297.48 4.72Q297.48 5.37 297.24 5.94Q296.99 6.50 296.56 6.92Q296.13 7.34 295.56 7.59Q294.99 7.83 294.34 7.83L294.34 7.83Q293.69 7.83 293.12 7.59Q292.55 7.34 292.13 6.92Q291.71 6.50 291.46 5.94Q291.21 5.37 291.21 4.72L291.21 4.72Q291.21 4.09 291.46 3.52Q291.71 2.95 292.13 2.53Q292.55 2.11 293.12 1.86Q293.69 1.61 294.34 1.61L294.34 1.61Q294.99 1.61 295.56 1.86Q296.13 2.11 296.56 2.53Q296.99 2.95 297.24 3.52Q297.48 4.09 297.48 4.72ZM296.68 9.70L296.68 28L291.98 28L291.98 9.70L296.68 9.70Z" fill="#312ECB"></path></g>
        
      </svg>